C:\GBW_MyPrograms\KinderuniversiteitApp\Resultaten\Ellis\MrImpossible_v1.mot
version=1
nRows=7
nColumns=31
inDegrees=yes
endheader
                time	         pelvis_tilt	           pelvis_tx	           pelvis_ty	       hip_flexion_r	        knee_angle_r	       ankle_angle_r	       hip_flexion_l	        knee_angle_l	       ankle_angle_l	    lumbar_extension	          arm_flex_r	          arm_flex_l	hamstrings_r/activation	bifemsh_r/activation	glut_max_r/activation	iliopsoas_r/activation	rect_fem_r/activation	  vasti_r/activation	gastroc_r/activation	 soleus_r/activation	tib_ant_r/activation	hamstrings_l/activation	bifemsh_l/activation	glut_max_l/activation	iliopsoas_l/activation	rect_fem_l/activation	  vasti_l/activation	gastroc_l/activation	 soleus_l/activation	tib_ant_l/activation	
          0.37524533	         -1.37748802	          0.49907629	          1.02646398	         29.53750881	        -52.27416482	         -5.31660655	         10.76960835	        -24.39594516	          5.42776038	         -3.52745952	         -3.30631711	         -3.30631964	          0.16150866	          0.65306638	          0.23410349	          0.79065872	          0.73440365	          0.41788434	          0.34854318	          0.08178399	          0.86855866	          0.53130805	          0.63970714	          0.51853213	          0.67763781	          0.60849702	          0.50152064	          0.06359497	          0.05284298	          0.91429525	
          0.38275023	         -1.42661378	          0.50870281	          1.01965891	         30.38317987	        -51.56428369	         -4.20583150	         10.03980696	        -23.82550939	          7.32342020	         -3.50218298	         -3.27198585	         -3.27198857	          0.15521248	          0.65014980	          0.24840919	          0.78686457	          0.72774249	          0.42030888	          0.33005950	          0.07560743	          0.87426334	          0.50975534	          0.62473978	          0.53683428	          0.65777612	          0.61661142	          0.52967174	          0.06749650	          0.05153961	          0.85719383	
          0.39025514	         -1.47393745	          0.51839448	          1.01238948	         31.16636997	        -50.64085777	         -3.11289838	          9.29270474	        -23.63741527	          9.60525084	         -3.47172163	         -3.24680612	         -3.24680906	          0.15609200	          0.64868859	          0.26466827	          0.77852796	          0.71900942	          0.41581340	          0.31270412	          0.07026697	          0.87795217	          0.47550068	          0.62210112	          0.55444235	          0.63253792	          0.62468964	          0.55505719	          0.16586387	          0.13158007	          0.79636453	
          0.39776005	         -1.51820127	          0.52818247	          1.00481197	         31.87082726	        -49.49939307	         -2.06251903	          8.45659150	        -23.47877337	         12.06390926	         -3.43440605	         -3.23493271	         -3.23493563	          0.16935611	          0.65050941	          0.26899405	          0.76727187	          0.71025872	          0.40737762	          0.29761060	          0.06678100	          0.87777585	          0.44053639	          0.60905108	          0.57251672	          0.60089266	          0.65154763	          0.62397113	          0.19261530	          0.15187911	          0.74676193	
          0.40526495	         -1.55760574	          0.53800579	          0.99728151	         32.47709718	        -48.12346591	         -1.14028654	          7.67987090	        -23.43092668	         14.29849552	         -3.40030992	         -3.22748735	         -3.22749067	          0.16810507	          0.65747098	          0.28008643	          0.79208379	          0.71876446	          0.39376532	          0.28412380	          0.06430987	          0.87645731	          0.40348035	          0.58560413	          0.55629198	          0.61730482	          0.71179919	          0.69383348	          0.21014975	          0.15507602	          0.70748920	
          0.41276986	         -1.59398565	          0.54772163	          0.99042011	         32.95486861	        -46.46404677	         -0.40435770	          7.41548008	        -24.26300884	         16.18700764	         -3.38537609	         -3.20501065	         -3.20501376	          0.16186111	          0.66679532	          0.27298500	          0.79376186	          0.71842327	          0.39040992	          0.27335779	          0.06353027	          0.87128214	          0.36934173	          0.57233415	          0.52708982	          0.67943999	          0.75139587	          0.74220572	          0.23688140	          0.16434319	          0.66844205	
          0.42027477	         -1.64351667	          0.55741971	          0.98440792	         33.32375982	        -44.62034829	          0.19121272	          7.65431135	        -25.92716258	         17.69355053	         -3.36091368	         -3.18382767	         -3.18383125	          0.16733473	          0.65509528	          0.28583638	          0.77721205	          0.71186720	          0.40723766	          0.26822371	          0.06945979	          0.85266523	          0.33940782	          0.55730062	          0.51354912	          0.68457030	          0.77988871	          0.78409710	          0.27115932	          0.18833900	          0.62862175	
